<svg width="63" height="61" viewBox="0 0 63 61" fill="none" xmlns="http://www.w3.org/2000/svg">
<path d="M34.1555 37.0666C34.1555 37.0666 24.8815 23.4255 40.6265 8.71977C40.6265 8.71977 55.0408 25.6918 36.5964 37.222C36.5964 37.222 37.0329 26.2785 39.1024 21.8202C39.1024 21.8202 33.5572 31.519 34.1555 37.0666" fill="#45C900"/>
<path d="M40.4198 38.3813C40.4198 38.3813 46.1153 26.3834 62.7413 31.3307C62.7413 31.3307 56.8263 48.2538 41.3057 40.1383C41.3057 40.1383 49.085 35.988 53.023 35.6081C53.023 35.6081 44.0253 35.7089 40.4198 38.3813Z" fill="#45C900"/>
<path d="M23.0952 38.6197C23.0952 38.6197 12.1388 46.3221 0 33.7266C0 33.7266 13.5955 21.8086 23.1906 36.6362C23.1906 36.6362 14.3006 36.4207 10.6549 34.7974C10.6549 34.7974 18.5991 39.1759 23.0952 38.6197" fill="#45C900"/>
<path d="M25.8456 35.0006C25.8456 35.0006 11.6538 30.1624 15.0552 10.877C15.0552 10.877 34.7989 15.325 27.7014 33.7801C27.7014 33.7801 22.0422 25.5918 21.1074 21.224C21.1074 21.224 22.3828 31.3023 25.8456 35.0006" fill="#45C900"/>
<path d="M48.102 27.3004C48.102 27.3004 47.7038 18.3702 59.1495 16.0673C59.1495 16.0673 60.9709 27.995 49.1828 28.0656C49.1828 28.0656 52.4991 23.1441 54.7206 21.676C54.7206 21.676 49.4025 24.5741 48.102 27.3004Z" fill="#45C900"/>
<path d="M12.9534 27.6598C12.9534 27.6598 4.61225 28.9712 1.24646 18.469C1.24646 18.469 12.2532 15.5062 13.5589 26.564C13.5589 26.564 8.5888 23.97 6.97735 22.0378C6.97735 22.0378 10.255 26.7242 12.9534 27.6598" fill="#45C900"/>
<path d="M29.2695 16.9909C29.2695 16.9909 22.6584 9.94398 30.4289 9.04565e-06C30.4289 9.04565e-06 40.3172 8.50479 30.6948 16.858C30.6948 16.858 29.9522 10.4865 30.7421 7.71843C30.7421 7.71843 28.4184 13.8389 29.2695 16.9909" fill="#45C900"/>
<path d="M40.8263 43.866C40.8263 43.866 49.3159 41.0677 54.6279 51.4646C54.6279 51.4646 43.6369 56.4432 40.3816 45.1132C40.3816 45.1132 46.0165 46.9754 48.0307 48.7171C48.0307 48.7171 43.8026 44.3808 40.8263 43.866" fill="#45C900"/>
<path d="M23.4974 45.4846C23.4974 45.4846 20.1882 54.2708 8.18457 51.7627C8.18457 51.7627 11.3594 39.4925 22.7699 44.2978C22.7699 44.2978 17.5338 47.6806 14.7808 48.1787C14.7808 48.1787 21.1119 47.581 23.4974 45.4846Z" fill="#45C900"/>
<path d="M35.8251 60.4248H26.4592C25.7268 60.4248 25.2448 59.658 25.5444 58.9897C29.2769 50.662 29.6153 46.2875 27.3514 43.4897C26.6826 42.6632 27.159 40.9267 28.2223 40.9267H34.7767C35.8364 40.9267 36.3068 42.6277 35.5934 43.4114C32.2087 47.1296 34.0796 52.2486 36.7544 59.0575C37.0121 59.7134 36.5298 60.4248 35.8251 60.4248Z" fill="#FF6A3D"/>
</svg>
